<mxfile host="app.diagrams.net" modified="2022-05-25T23:14:19.097Z" agent="5.0 (X11)" etag="2KNqeDl9rJEWFYWB-zJk" version="17.0.0" type="github">
  <diagram id="J5-MaVGMtkhbtzbR83I5" name="Page-1">
    <mxGraphModel dx="229" dy="122" grid="1" gridSize="10" guides="1" tooltips="1" connect="1" arrows="1" fold="1" page="1" pageScale="1" pageWidth="850" pageHeight="1100" math="0" shadow="0">
      <root>
        <mxCell id="0" />
        <mxCell id="1" parent="0" />
        <mxCell id="GI2jge5THqdL87X3VJv0-8" value="" style="group" vertex="1" connectable="0" parent="1">
          <mxGeometry x="40" y="110" width="270" height="290" as="geometry" />
        </mxCell>
        <mxCell id="SL7Pr_ITHsChF1TBJ-bq-1" value="" style="whiteSpace=wrap;html=1;aspect=fixed;" parent="GI2jge5THqdL87X3VJv0-8" vertex="1">
          <mxGeometry x="23.823529411764703" y="22.894736842105264" width="221.31578947368422" height="221.31578947368422" as="geometry" />
        </mxCell>
        <mxCell id="SL7Pr_ITHsChF1TBJ-bq-10" value="" style="shape=flexArrow;endArrow=classic;html=1;rounded=0;strokeWidth=6;" parent="GI2jge5THqdL87X3VJv0-8" edge="1">
          <mxGeometry width="50" height="50" relative="1" as="geometry">
            <mxPoint x="31.76470588235294" y="244.21052631578948" as="sourcePoint" />
            <mxPoint y="290" as="targetPoint" />
          </mxGeometry>
        </mxCell>
        <mxCell id="SL7Pr_ITHsChF1TBJ-bq-11" value="" style="shape=flexArrow;endArrow=classic;html=1;rounded=0;strokeWidth=6;" parent="GI2jge5THqdL87X3VJv0-8" edge="1">
          <mxGeometry width="50" height="50" relative="1" as="geometry">
            <mxPoint x="108.79411764705881" y="244.21052631578948" as="sourcePoint" />
            <mxPoint x="84.97058823529412" y="290" as="targetPoint" />
          </mxGeometry>
        </mxCell>
        <mxCell id="SL7Pr_ITHsChF1TBJ-bq-12" value="" style="shape=flexArrow;endArrow=classic;html=1;rounded=0;strokeWidth=6;" parent="GI2jge5THqdL87X3VJv0-8" edge="1">
          <mxGeometry width="50" height="50" relative="1" as="geometry">
            <mxPoint x="179.47058823529412" y="244.21052631578948" as="sourcePoint" />
            <mxPoint x="171.52941176470588" y="290" as="targetPoint" />
          </mxGeometry>
        </mxCell>
        <mxCell id="GI2jge5THqdL87X3VJv0-1" value="" style="group" vertex="1" connectable="0" parent="GI2jge5THqdL87X3VJv0-8">
          <mxGeometry x="23.823529411764703" width="246.17647058823528" height="22.894736842105264" as="geometry" />
        </mxCell>
        <mxCell id="SL7Pr_ITHsChF1TBJ-bq-2" value="" style="endArrow=none;html=1;rounded=0;strokeWidth=6;" parent="GI2jge5THqdL87X3VJv0-1" edge="1">
          <mxGeometry width="50" height="50" relative="1" as="geometry">
            <mxPoint y="22.894736842105264" as="sourcePoint" />
            <mxPoint x="19.694117647058825" as="targetPoint" />
          </mxGeometry>
        </mxCell>
        <mxCell id="SL7Pr_ITHsChF1TBJ-bq-3" value="" style="endArrow=none;html=1;rounded=0;strokeWidth=6;" parent="GI2jge5THqdL87X3VJv0-1" edge="1">
          <mxGeometry width="50" height="50" relative="1" as="geometry">
            <mxPoint x="39.38823529411765" y="22.894736842105264" as="sourcePoint" />
            <mxPoint x="59.082352941176474" as="targetPoint" />
          </mxGeometry>
        </mxCell>
        <mxCell id="SL7Pr_ITHsChF1TBJ-bq-4" value="" style="endArrow=none;html=1;rounded=0;strokeWidth=6;" parent="GI2jge5THqdL87X3VJv0-1" edge="1">
          <mxGeometry width="50" height="50" relative="1" as="geometry">
            <mxPoint x="88.62352941176471" y="22.894736842105264" as="sourcePoint" />
            <mxPoint x="108.31764705882352" as="targetPoint" />
          </mxGeometry>
        </mxCell>
        <mxCell id="SL7Pr_ITHsChF1TBJ-bq-5" value="" style="endArrow=none;html=1;rounded=0;strokeWidth=6;" parent="GI2jge5THqdL87X3VJv0-1" edge="1">
          <mxGeometry width="50" height="50" relative="1" as="geometry">
            <mxPoint x="137.85882352941178" y="22.894736842105264" as="sourcePoint" />
            <mxPoint x="157.5529411764706" as="targetPoint" />
          </mxGeometry>
        </mxCell>
        <mxCell id="SL7Pr_ITHsChF1TBJ-bq-6" value="" style="endArrow=none;html=1;rounded=0;strokeWidth=6;" parent="GI2jge5THqdL87X3VJv0-1" edge="1">
          <mxGeometry width="50" height="50" relative="1" as="geometry">
            <mxPoint x="182.1705882352941" y="22.894736842105264" as="sourcePoint" />
            <mxPoint x="201.86470588235295" as="targetPoint" />
          </mxGeometry>
        </mxCell>
        <mxCell id="SL7Pr_ITHsChF1TBJ-bq-7" value="" style="endArrow=none;html=1;rounded=0;strokeWidth=6;" parent="GI2jge5THqdL87X3VJv0-1" edge="1">
          <mxGeometry width="50" height="50" relative="1" as="geometry">
            <mxPoint x="226.48235294117646" y="22.894736842105264" as="sourcePoint" />
            <mxPoint x="246.17647058823533" as="targetPoint" />
          </mxGeometry>
        </mxCell>
        <mxCell id="GI2jge5THqdL87X3VJv0-2" value="" style="shape=flexArrow;endArrow=classic;html=1;rounded=0;strokeWidth=6;" edge="1" parent="GI2jge5THqdL87X3VJv0-8">
          <mxGeometry width="50" height="50" relative="1" as="geometry">
            <mxPoint x="246.17647058823528" y="244.21052631578948" as="sourcePoint" />
            <mxPoint x="246.17647058823528" y="282.3684210526316" as="targetPoint" />
          </mxGeometry>
        </mxCell>
        <mxCell id="GI2jge5THqdL87X3VJv0-7" value="" style="group" vertex="1" connectable="0" parent="GI2jge5THqdL87X3VJv0-8">
          <mxGeometry x="141.35294117647058" y="128.97368421052633" height="15.263157894736842" as="geometry" />
        </mxCell>
        <mxCell id="GI2jge5THqdL87X3VJv0-3" value="" style="curved=1;endArrow=none;html=1;rounded=0;endFill=0;strokeWidth=3;" edge="1" parent="GI2jge5THqdL87X3VJv0-7">
          <mxGeometry width="50" height="50" relative="1" as="geometry">
            <mxPoint x="-40" y="7.631578947368421" as="sourcePoint" />
            <mxPoint x="39" y="7.631578947368421" as="targetPoint" />
            <Array as="points">
              <mxPoint />
            </Array>
          </mxGeometry>
        </mxCell>
        <mxCell id="GI2jge5THqdL87X3VJv0-5" value="" style="curved=1;endArrow=none;html=1;rounded=0;endFill=0;strokeWidth=3;" edge="1" parent="GI2jge5THqdL87X3VJv0-7">
          <mxGeometry width="50" height="50" relative="1" as="geometry">
            <mxPoint x="40" y="7.631578947368421" as="sourcePoint" />
            <mxPoint x="-40" y="7.631578947368421" as="targetPoint" />
            <Array as="points">
              <mxPoint y="15.263157894736842" />
            </Array>
          </mxGeometry>
        </mxCell>
        <mxCell id="GI2jge5THqdL87X3VJv0-9" value="" style="group" vertex="1" connectable="0" parent="1">
          <mxGeometry x="474" y="116" width="270" height="290" as="geometry" />
        </mxCell>
        <mxCell id="GI2jge5THqdL87X3VJv0-10" value="" style="whiteSpace=wrap;html=1;aspect=fixed;" vertex="1" parent="GI2jge5THqdL87X3VJv0-9">
          <mxGeometry x="23.823529411764703" y="22.894736842105264" width="221.31578947368422" height="221.31578947368422" as="geometry" />
        </mxCell>
        <mxCell id="GI2jge5THqdL87X3VJv0-14" value="" style="group" vertex="1" connectable="0" parent="GI2jge5THqdL87X3VJv0-9">
          <mxGeometry x="23.823529411764703" width="246.17647058823528" height="22.894736842105264" as="geometry" />
        </mxCell>
        <mxCell id="GI2jge5THqdL87X3VJv0-15" value="" style="endArrow=none;html=1;rounded=0;strokeWidth=6;" edge="1" parent="GI2jge5THqdL87X3VJv0-14">
          <mxGeometry width="50" height="50" relative="1" as="geometry">
            <mxPoint y="22.894736842105264" as="sourcePoint" />
            <mxPoint x="19.694117647058825" as="targetPoint" />
          </mxGeometry>
        </mxCell>
        <mxCell id="GI2jge5THqdL87X3VJv0-16" value="" style="endArrow=none;html=1;rounded=0;strokeWidth=6;" edge="1" parent="GI2jge5THqdL87X3VJv0-14">
          <mxGeometry width="50" height="50" relative="1" as="geometry">
            <mxPoint x="39.38823529411765" y="22.894736842105264" as="sourcePoint" />
            <mxPoint x="59.082352941176474" as="targetPoint" />
          </mxGeometry>
        </mxCell>
        <mxCell id="GI2jge5THqdL87X3VJv0-17" value="" style="endArrow=none;html=1;rounded=0;strokeWidth=6;" edge="1" parent="GI2jge5THqdL87X3VJv0-14">
          <mxGeometry width="50" height="50" relative="1" as="geometry">
            <mxPoint x="88.62352941176471" y="22.894736842105264" as="sourcePoint" />
            <mxPoint x="108.31764705882352" as="targetPoint" />
          </mxGeometry>
        </mxCell>
        <mxCell id="GI2jge5THqdL87X3VJv0-18" value="" style="endArrow=none;html=1;rounded=0;strokeWidth=6;" edge="1" parent="GI2jge5THqdL87X3VJv0-14">
          <mxGeometry width="50" height="50" relative="1" as="geometry">
            <mxPoint x="137.85882352941178" y="22.894736842105264" as="sourcePoint" />
            <mxPoint x="157.5529411764706" as="targetPoint" />
          </mxGeometry>
        </mxCell>
        <mxCell id="GI2jge5THqdL87X3VJv0-19" value="" style="endArrow=none;html=1;rounded=0;strokeWidth=6;" edge="1" parent="GI2jge5THqdL87X3VJv0-14">
          <mxGeometry width="50" height="50" relative="1" as="geometry">
            <mxPoint x="182.1705882352941" y="22.894736842105264" as="sourcePoint" />
            <mxPoint x="201.86470588235295" as="targetPoint" />
          </mxGeometry>
        </mxCell>
        <mxCell id="GI2jge5THqdL87X3VJv0-20" value="" style="endArrow=none;html=1;rounded=0;strokeWidth=6;" edge="1" parent="GI2jge5THqdL87X3VJv0-14">
          <mxGeometry width="50" height="50" relative="1" as="geometry">
            <mxPoint x="226.48235294117646" y="22.894736842105264" as="sourcePoint" />
            <mxPoint x="246.17647058823533" as="targetPoint" />
          </mxGeometry>
        </mxCell>
        <mxCell id="GI2jge5THqdL87X3VJv0-22" value="" style="group" vertex="1" connectable="0" parent="GI2jge5THqdL87X3VJv0-9">
          <mxGeometry x="141.35294117647058" y="128.97368421052633" height="15.263157894736842" as="geometry" />
        </mxCell>
        <mxCell id="GI2jge5THqdL87X3VJv0-23" value="" style="curved=1;endArrow=none;html=1;rounded=0;endFill=0;strokeWidth=3;" edge="1" parent="GI2jge5THqdL87X3VJv0-22">
          <mxGeometry width="50" height="50" relative="1" as="geometry">
            <mxPoint x="-40" y="7.631578947368421" as="sourcePoint" />
            <mxPoint x="39" y="7.631578947368421" as="targetPoint" />
            <Array as="points">
              <mxPoint />
            </Array>
          </mxGeometry>
        </mxCell>
        <mxCell id="GI2jge5THqdL87X3VJv0-24" value="" style="curved=1;endArrow=none;html=1;rounded=0;endFill=0;strokeWidth=3;" edge="1" parent="GI2jge5THqdL87X3VJv0-22">
          <mxGeometry width="50" height="50" relative="1" as="geometry">
            <mxPoint x="40" y="7.631578947368421" as="sourcePoint" />
            <mxPoint x="-40" y="7.631578947368421" as="targetPoint" />
            <Array as="points">
              <mxPoint y="15.263157894736842" />
            </Array>
          </mxGeometry>
        </mxCell>
        <mxCell id="GI2jge5THqdL87X3VJv0-31" value="" style="endArrow=none;html=1;rounded=0;strokeWidth=1;fillColor=#dae8fc;strokeColor=#6c8ebf;" edge="1" parent="GI2jge5THqdL87X3VJv0-22">
          <mxGeometry width="50" height="50" relative="1" as="geometry">
            <mxPoint x="-15.352941176470608" y="10.136315789473684" as="sourcePoint" />
            <mxPoint x="-10.352941176470608" y="5.136315789473684" as="targetPoint" />
            <Array as="points" />
          </mxGeometry>
        </mxCell>
        <mxCell id="GI2jge5THqdL87X3VJv0-34" value="" style="endArrow=none;html=1;rounded=0;strokeWidth=1;fillColor=#dae8fc;strokeColor=#6c8ebf;" edge="1" parent="GI2jge5THqdL87X3VJv0-22">
          <mxGeometry width="50" height="50" relative="1" as="geometry">
            <mxPoint x="-2.5029411764705856" y="10.136315789473684" as="sourcePoint" />
            <mxPoint x="2.4970588235294144" y="5.136315789473684" as="targetPoint" />
            <Array as="points" />
          </mxGeometry>
        </mxCell>
        <mxCell id="GI2jge5THqdL87X3VJv0-37" value="" style="endArrow=none;html=1;rounded=0;strokeWidth=1;fillColor=#dae8fc;strokeColor=#6c8ebf;" edge="1" parent="GI2jge5THqdL87X3VJv0-22">
          <mxGeometry width="50" height="50" relative="1" as="geometry">
            <mxPoint x="-21.35294117647061" y="10.136315789473684" as="sourcePoint" />
            <mxPoint x="-16.35294117647061" y="5.136315789473684" as="targetPoint" />
            <Array as="points" />
          </mxGeometry>
        </mxCell>
        <mxCell id="GI2jge5THqdL87X3VJv0-33" value="" style="endArrow=none;html=1;rounded=0;strokeWidth=1;fillColor=#dae8fc;strokeColor=#6c8ebf;" edge="1" parent="GI2jge5THqdL87X3VJv0-9">
          <mxGeometry width="50" height="50" relative="1" as="geometry">
            <mxPoint x="131.98000000000002" y="139.11" as="sourcePoint" />
            <mxPoint x="136.98000000000002" y="134.11" as="targetPoint" />
            <Array as="points" />
          </mxGeometry>
        </mxCell>
        <mxCell id="GI2jge5THqdL87X3VJv0-35" value="" style="endArrow=none;html=1;rounded=0;strokeWidth=1;fillColor=#dae8fc;strokeColor=#6c8ebf;" edge="1" parent="GI2jge5THqdL87X3VJv0-9">
          <mxGeometry width="50" height="50" relative="1" as="geometry">
            <mxPoint x="144.40999999999997" y="139.11" as="sourcePoint" />
            <mxPoint x="149.40999999999997" y="134.11" as="targetPoint" />
            <Array as="points" />
          </mxGeometry>
        </mxCell>
        <mxCell id="GI2jge5THqdL87X3VJv0-36" value="" style="endArrow=none;html=1;rounded=0;strokeWidth=1;fillColor=#dae8fc;strokeColor=#6c8ebf;" edge="1" parent="GI2jge5THqdL87X3VJv0-9">
          <mxGeometry width="50" height="50" relative="1" as="geometry">
            <mxPoint x="151" y="139.11" as="sourcePoint" />
            <mxPoint x="156" y="134.11" as="targetPoint" />
            <Array as="points" />
          </mxGeometry>
        </mxCell>
        <mxCell id="GI2jge5THqdL87X3VJv0-38" value="" style="endArrow=none;html=1;rounded=0;strokeWidth=1;fillColor=#dae8fc;strokeColor=#6c8ebf;" edge="1" parent="GI2jge5THqdL87X3VJv0-9">
          <mxGeometry width="50" height="50" relative="1" as="geometry">
            <mxPoint x="157" y="139.11" as="sourcePoint" />
            <mxPoint x="162" y="134.11" as="targetPoint" />
            <Array as="points" />
          </mxGeometry>
        </mxCell>
        <mxCell id="GI2jge5THqdL87X3VJv0-41" value="" style="shape=flexArrow;endArrow=classic;html=1;rounded=0;strokeWidth=1;endSize=2.216666666666667;startSize=1;endWidth=8.88888888888889;" edge="1" parent="GI2jge5THqdL87X3VJv0-9">
          <mxGeometry width="50" height="50" relative="1" as="geometry">
            <mxPoint x="115" y="134.03" as="sourcePoint" />
            <mxPoint x="116" y="114" as="targetPoint" />
          </mxGeometry>
        </mxCell>
        <mxCell id="GI2jge5THqdL87X3VJv0-43" value="" style="shape=flexArrow;endArrow=classic;html=1;rounded=0;strokeWidth=1;endSize=2.216666666666667;startSize=1;endWidth=8.88888888888889;" edge="1" parent="GI2jge5THqdL87X3VJv0-9">
          <mxGeometry width="50" height="50" relative="1" as="geometry">
            <mxPoint x="164" y="133.02999999999997" as="sourcePoint" />
            <mxPoint x="176" y="124" as="targetPoint" />
          </mxGeometry>
        </mxCell>
        <mxCell id="GI2jge5THqdL87X3VJv0-42" value="" style="shape=flexArrow;endArrow=classic;html=1;rounded=0;strokeWidth=1;endSize=2.216666666666667;startSize=1;endWidth=8.88888888888889;" edge="1" parent="GI2jge5THqdL87X3VJv0-9">
          <mxGeometry width="50" height="50" relative="1" as="geometry">
            <mxPoint x="115" y="139.23999999999995" as="sourcePoint" />
            <mxPoint x="116" y="159.20999999999998" as="targetPoint" />
          </mxGeometry>
        </mxCell>
      </root>
    </mxGraphModel>
  </diagram>
</mxfile>
